<?xml version="1.0" encoding="utf-8"?>
<!-- Generator: Adobe Illustrator 26.3.1, SVG Export Plug-In . SVG Version: 6.00 Build 0)  -->
<svg version="1.1" xmlns="http://www.w3.org/2000/svg" xmlns:xlink="http://www.w3.org/1999/xlink" x="0px" y="0px"
	 viewBox="0 0 300 138" enable-background="new 0 0 300 138" xml:space="preserve">
<g id="Ebene_1">
	<g>
		<path d="M124.404,89.003l-1.465-2.51c-0.152,0.009-0.313,0.018-0.482,0.018h-0.482v2.492h-0.778v-6.164h1.304
			c1.68,0,2.43,0.59,2.43,1.724c0,0.84-0.394,1.465-1.216,1.76l1.644,2.68H124.404z M122.501,83.482h-0.527v2.385h0.482
			c1.135,0,1.644-0.438,1.644-1.259C124.101,83.83,123.609,83.482,122.501,83.482z"/>
		<path d="M127.952,86.618h0.357v-0.33c0-0.751-0.295-1.037-0.849-1.037c-0.518,0-0.875,0.241-1.063,0.393l-0.268-0.536
			c0.223-0.17,0.66-0.5,1.465-0.5c0.938,0,1.438,0.545,1.438,1.68v1.822c0,0.366,0.036,0.777,0.054,0.893h-0.697l-0.027-0.474
			h-0.018c-0.151,0.241-0.518,0.58-1.197,0.58c-0.706,0-1.162-0.5-1.162-1.223C125.986,87.002,126.835,86.618,127.952,86.618z
			 M128.309,88.064v-0.929l-0.411,0.018c-0.813,0.036-1.188,0.232-1.188,0.687c0,0.42,0.286,0.653,0.599,0.653
			C127.88,88.494,128.148,88.235,128.309,88.064z"/>
		<path d="M132.155,84.634c0.375,0,0.634,0.081,0.804,0.152v-2.099l0.724-0.08v6.396h-0.67V88.52h-0.018
			c-0.116,0.161-0.411,0.589-1.277,0.589c-0.938,0-1.653-0.759-1.653-2.162C130.065,85.295,131.119,84.634,132.155,84.634z
			 M132.959,87.993v-2.502c-0.152-0.107-0.384-0.214-0.768-0.214c-0.831,0-1.376,0.455-1.376,1.617c0,1.152,0.527,1.572,1.17,1.572
			C132.566,88.467,132.834,88.145,132.959,87.993z"/>
		<path d="M136.669,89.003h-0.589l-1.546-4.288h0.768l1.108,3.341h0.018l1.098-3.341h0.688L136.669,89.003z"/>
		<path d="M141.925,87.01h-2.492c0.054,0.992,0.527,1.456,1.304,1.456c0.679,0,1.01-0.295,1.125-0.402l0.215,0.519
			c-0.142,0.143-0.509,0.527-1.421,0.527c-1.215,0-1.947-0.706-1.947-2.304c0-1.501,0.885-2.198,1.859-2.198
			c0.884,0,1.438,0.598,1.438,1.68C142.005,86.573,141.97,86.805,141.925,87.01z M139.432,86.448h1.876
			c0.017-0.108,0.017-0.197,0.017-0.286c0-0.599-0.312-0.938-0.821-0.938C139.906,85.224,139.486,85.662,139.432,86.448z"/>
		<path d="M145.239,85.358c-0.054-0.027-0.16-0.08-0.393-0.08c-0.572,0-0.866,0.348-0.991,0.607v3.118h-0.725v-4.288h0.671v0.634
			h0.017c0.134-0.313,0.42-0.715,1.09-0.715c0.179,0,0.287,0.027,0.393,0.063L145.239,85.358z"/>
		<path d="M147.836,86.644l1.778,2.358h-0.911l-1.465-2.001h-0.358v2.001h-0.723v-6.316l0.723-0.08v3.779h0.375l1.411-1.671h0.876
			L147.836,86.644z"/>
		<path d="M153.211,87.01h-2.492c0.054,0.992,0.527,1.456,1.305,1.456c0.678,0,1.01-0.295,1.125-0.402l0.215,0.519
			c-0.143,0.143-0.509,0.527-1.421,0.527c-1.215,0-1.947-0.706-1.947-2.304c0-1.501,0.884-2.198,1.858-2.198
			c0.884,0,1.439,0.598,1.439,1.68C153.293,86.573,153.257,86.805,153.211,87.01z M150.719,86.448h1.877
			c0.017-0.108,0.017-0.197,0.017-0.286c0-0.599-0.313-0.938-0.822-0.938C151.194,85.224,150.773,85.662,150.719,86.448z"/>
		<path d="M157.125,89.003v-2.537c0-0.822-0.25-1.215-0.857-1.215c-0.58,0-0.93,0.286-1.126,0.465v3.287h-0.723v-6.316l0.723-0.08
			v2.546h0.017c0.215-0.215,0.617-0.545,1.277-0.545c0.912,0,1.413,0.572,1.413,1.741v2.654H157.125z"/>
		<path d="M161.212,85.358c-0.054-0.027-0.16-0.08-0.393-0.08c-0.572,0-0.866,0.348-0.991,0.607v3.118h-0.725v-4.288h0.671v0.634
			h0.017c0.134-0.313,0.42-0.715,1.09-0.715c0.179,0,0.287,0.027,0.393,0.063L161.212,85.358z"/>
		<path d="M164.305,85.608c-0.151-0.125-0.473-0.375-0.947-0.375c-0.464,0-0.688,0.196-0.688,0.447c0,0.34,0.196,0.492,0.653,0.724
			l0.322,0.161c0.669,0.34,1.036,0.706,1.036,1.331c0,0.652-0.483,1.215-1.528,1.215c-0.714,0-1.09-0.276-1.286-0.455l0.268-0.634
			c0.188,0.188,0.5,0.447,1.018,0.447c0.546,0,0.822-0.205,0.822-0.482c0-0.411-0.268-0.563-0.751-0.822l-0.313-0.17
			c-0.617-0.331-0.919-0.688-0.919-1.277c0-0.634,0.572-1.108,1.384-1.108c0.688,0,1.02,0.286,1.171,0.411L164.305,85.608z"/>
		<path d="M167.71,85.331h-1.027v3.672h-0.725v-3.672h-0.589v-0.509l0.589-0.107v-0.724c0-0.956,0.5-1.438,1.368-1.438
			c0.313,0,0.518,0.107,0.572,0.134l-0.099,0.617c-0.063-0.027-0.25-0.108-0.482-0.108c-0.42,0-0.634,0.215-0.634,0.804v0.714h1.116
			L167.71,85.331z"/>
		<path d="M170.165,89.11c-1.055,0-1.849-0.714-1.849-2.251c0-1.554,0.928-2.251,1.955-2.251c1.055,0,1.851,0.697,1.851,2.251
			C172.121,88.395,171.192,89.11,170.165,89.11z M169.485,83.938c-0.241,0-0.438-0.179-0.438-0.456s0.196-0.455,0.438-0.455
			s0.438,0.178,0.438,0.455S169.727,83.938,169.485,83.938z M170.219,85.251c-0.671,0-1.154,0.509-1.154,1.608
			c0,1.09,0.483,1.608,1.154,1.608c0.687,0,1.152-0.518,1.152-1.608C171.371,85.76,170.888,85.251,170.219,85.251z M171.004,83.938
			c-0.241,0-0.438-0.179-0.438-0.456s0.196-0.455,0.438-0.455s0.438,0.178,0.438,0.455S171.246,83.938,171.004,83.938z"/>
		<path d="M175.309,85.358c-0.054-0.027-0.16-0.08-0.393-0.08c-0.572,0-0.866,0.348-0.991,0.607v3.118h-0.725v-4.288h0.671v0.634
			h0.017c0.134-0.313,0.42-0.715,1.09-0.715c0.179,0,0.287,0.027,0.393,0.063L175.309,85.358z"/>
		<path d="M177.974,84.634c0.374,0,0.634,0.081,0.803,0.152v-2.099l0.725-0.08v6.396h-0.671V88.52h-0.017
			c-0.116,0.161-0.412,0.589-1.277,0.589c-0.938,0-1.653-0.759-1.653-2.162C175.884,85.295,176.937,84.634,177.974,84.634z
			 M178.777,87.993v-2.502c-0.151-0.107-0.384-0.214-0.768-0.214c-0.831,0-1.376,0.455-1.376,1.617c0,1.152,0.528,1.572,1.171,1.572
			C178.384,88.467,178.652,88.145,178.777,87.993z"/>
		<path d="M183.802,87.01h-2.492c0.054,0.992,0.527,1.456,1.303,1.456c0.679,0,1.01-0.295,1.126-0.402l0.214,0.519
			c-0.143,0.143-0.509,0.527-1.42,0.527c-1.215,0-1.948-0.706-1.948-2.304c0-1.501,0.884-2.198,1.859-2.198
			c0.883,0,1.437,0.598,1.437,1.68C183.882,86.573,183.847,86.805,183.802,87.01z M181.31,86.448h1.875
			c0.017-0.108,0.017-0.197,0.017-0.286c0-0.599-0.311-0.938-0.82-0.938C181.783,85.224,181.364,85.662,181.31,86.448z"/>
		<path d="M187.118,85.358c-0.054-0.027-0.162-0.08-0.393-0.08c-0.572,0-0.867,0.348-0.992,0.607v3.118h-0.723v-4.288h0.669v0.634
			h0.017c0.135-0.313,0.42-0.715,1.091-0.715c0.177,0,0.285,0.027,0.393,0.063L187.118,85.358z"/>
		<path d="M191.394,89.003h-0.671V88.52h-0.017c-0.134,0.161-0.483,0.589-1.322,0.589c-0.884,0-1.366-0.545-1.366-1.741v-2.654
			h0.723v2.537c0,0.849,0.25,1.215,0.831,1.215c0.608,0,0.921-0.295,1.098-0.464v-3.288h0.725V89.003z"/>
		<path d="M195.38,89.003v-2.537c0-0.822-0.25-1.215-0.857-1.215c-0.58,0-0.93,0.286-1.126,0.465v3.287h-0.723v-4.288h0.669v0.482
			h0.017c0.17-0.188,0.591-0.589,1.331-0.589c0.912,0,1.413,0.572,1.413,1.741v2.654H195.38z"/>
		<path d="M200.841,85.278h-0.652c0.151,0.223,0.242,0.491,0.242,0.777c0,0.912-0.725,1.448-1.68,1.448
			c-0.125,0-0.241-0.009-0.356-0.027c-0.144,0.063-0.358,0.188-0.358,0.42c0,0.179,0.134,0.304,0.455,0.304h0.876
			c0.902,0,1.42,0.375,1.42,1.134c0,0.813-0.777,1.564-2.268,1.564c-1.018,0-1.609-0.394-1.609-1.162
			c0-0.652,0.492-0.92,0.751-1.054v-0.018c-0.188-0.143-0.268-0.366-0.268-0.607c0-0.447,0.393-0.661,0.509-0.714v-0.018
			c-0.438-0.215-0.725-0.634-0.725-1.269c0-0.965,0.725-1.447,1.626-1.447c0.233,0,0.447,0.036,0.643,0.107h1.484L200.841,85.278z
			 M198.054,88.833c-0.223,0.134-0.447,0.348-0.447,0.759c0,0.482,0.322,0.687,0.965,0.687c1.046,0,1.493-0.402,1.493-0.84
			c0-0.411-0.214-0.572-0.697-0.572h-0.947C198.278,88.869,198.161,88.859,198.054,88.833z M198.813,85.206
			c-0.492,0-0.928,0.233-0.928,0.849c0,0.617,0.436,0.849,0.911,0.849c0.492,0,0.93-0.232,0.93-0.849
			C199.725,85.438,199.288,85.206,198.813,85.206z"/>
		<path d="M205.696,84.634c0.375,0,0.634,0.081,0.805,0.152v-2.099l0.723-0.08v6.396h-0.669V88.52h-0.019
			c-0.116,0.161-0.41,0.589-1.277,0.589c-0.938,0-1.653-0.759-1.653-2.162C203.605,85.295,204.66,84.634,205.696,84.634z
			 M206.501,87.993v-2.502c-0.153-0.107-0.384-0.214-0.768-0.214c-0.831,0-1.376,0.455-1.376,1.617c0,1.152,0.527,1.572,1.17,1.572
			C206.108,88.467,206.375,88.145,206.501,87.993z"/>
		<path d="M211.524,87.01h-2.492c0.054,0.992,0.527,1.456,1.305,1.456c0.678,0,1.01-0.295,1.125-0.402l0.215,0.519
			c-0.143,0.143-0.509,0.527-1.421,0.527c-1.215,0-1.947-0.706-1.947-2.304c0-1.501,0.884-2.198,1.858-2.198
			c0.884,0,1.439,0.598,1.439,1.68C211.606,86.573,211.569,86.805,211.524,87.01z M209.032,86.448h1.877
			c0.017-0.108,0.017-0.197,0.017-0.286c0-0.599-0.313-0.938-0.822-0.938C209.506,85.224,209.086,85.662,209.032,86.448z"/>
		<path d="M214.936,85.608c-0.153-0.125-0.474-0.375-0.947-0.375c-0.466,0-0.688,0.196-0.688,0.447c0,0.34,0.196,0.492,0.652,0.724
			l0.322,0.161c0.671,0.34,1.037,0.706,1.037,1.331c0,0.652-0.483,1.215-1.529,1.215c-0.714,0-1.09-0.276-1.286-0.455l0.268-0.634
			c0.188,0.188,0.5,0.447,1.018,0.447c0.546,0,0.822-0.205,0.822-0.482c0-0.411-0.268-0.563-0.749-0.822l-0.313-0.17
			c-0.617-0.331-0.921-0.688-0.921-1.277c0-0.634,0.572-1.108,1.385-1.108c0.688,0,1.018,0.286,1.17,0.411L214.936,85.608z"/>
		<path d="M221.049,85.831v0.018c0.732,0.134,1.295,0.643,1.295,1.483c0,0.965-0.714,1.671-2.412,1.671h-1.394v-6.164h1.314
			c1.679,0,2.313,0.616,2.313,1.572C222.165,85.286,221.647,85.644,221.049,85.831z M219.852,83.482h-0.535v2.091h0.527
			c1.027,0,1.519-0.411,1.519-1.135C221.362,83.875,220.924,83.482,219.852,83.482z M219.985,86.215h-0.669v2.144h0.615
			c1.135,0,1.581-0.375,1.581-1.081C221.513,86.599,220.95,86.215,219.985,86.215z"/>
		<path d="M226.841,89.003h-0.671V88.52h-0.017c-0.134,0.161-0.483,0.589-1.322,0.589c-0.885,0-1.366-0.545-1.366-1.741v-2.654
			h0.723v2.537c0,0.849,0.25,1.215,0.831,1.215c0.608,0,0.921-0.295,1.098-0.464v-3.288h0.725V89.003z"/>
		<path d="M230.827,89.003v-2.537c0-0.822-0.25-1.215-0.857-1.215c-0.58,0-0.93,0.286-1.126,0.465v3.287h-0.723v-4.288h0.669v0.482
			h0.017c0.17-0.188,0.591-0.589,1.331-0.589c0.912,0,1.413,0.572,1.413,1.741v2.654H230.827z"/>
		<path d="M234.692,84.634c0.374,0,0.634,0.081,0.803,0.152v-2.099l0.725-0.08v6.396h-0.671V88.52h-0.017
			c-0.116,0.161-0.412,0.589-1.277,0.589c-0.938,0-1.653-0.759-1.653-2.162C232.602,85.295,233.655,84.634,234.692,84.634z
			 M235.495,87.993v-2.502c-0.151-0.107-0.384-0.214-0.768-0.214c-0.831,0-1.376,0.455-1.376,1.617c0,1.152,0.528,1.572,1.171,1.572
			C235.103,88.467,235.37,88.145,235.495,87.993z"/>
		<path d="M240.52,87.01h-2.492c0.054,0.992,0.527,1.456,1.305,1.456c0.678,0,1.01-0.295,1.125-0.402l0.215,0.519
			c-0.143,0.143-0.509,0.527-1.421,0.527c-1.215,0-1.947-0.706-1.947-2.304c0-1.501,0.885-2.198,1.858-2.198
			c0.885,0,1.439,0.598,1.439,1.68C240.602,86.573,240.565,86.805,240.52,87.01z M238.028,86.448h1.877
			c0.017-0.108,0.017-0.197,0.017-0.286c0-0.599-0.313-0.938-0.822-0.938C238.503,85.224,238.082,85.662,238.028,86.448z"/>
		<path d="M243.932,85.608c-0.153-0.125-0.474-0.375-0.947-0.375c-0.466,0-0.688,0.196-0.688,0.447c0,0.34,0.196,0.492,0.652,0.724
			l0.321,0.161c0.671,0.34,1.037,0.706,1.037,1.331c0,0.652-0.483,1.215-1.529,1.215c-0.714,0-1.09-0.276-1.286-0.455l0.268-0.634
			c0.188,0.188,0.501,0.447,1.018,0.447c0.545,0,0.822-0.205,0.822-0.482c0-0.411-0.268-0.563-0.749-0.822l-0.313-0.17
			c-0.617-0.331-0.921-0.688-0.921-1.277c0-0.634,0.572-1.108,1.385-1.108c0.688,0,1.018,0.286,1.17,0.411L243.932,85.608z"/>
	</g>
	<g>
		<path fill="#441944" d="M130.432,55.8h-1.549l1.073-6.839h-0.03L126.26,55.8h-1.222l-1.49-6.839h-0.03l-1.073,6.839h-1.565
			l1.624-10.281h1.698l1.788,8.135h0.03l4.396-8.135h1.639L130.432,55.8z"/>
		<path fill="#441944" d="M139.312,51.36c0,2.965-1.773,4.619-3.86,4.619c-1.549,0-2.578-0.969-2.578-2.936
			c0-2.965,1.773-4.619,3.86-4.619C138.284,48.424,139.312,49.393,139.312,51.36z M134.395,52.865c0,1.207,0.417,1.848,1.282,1.848
			c1.087,0,2.115-1.118,2.115-3.174c0-1.207-0.417-1.848-1.281-1.848C135.438,49.691,134.395,50.793,134.395,52.865z"/>
		<path fill="#441944" d="M146.051,55.8h-1.37l0.164-1.028h-0.03c-0.179,0.283-0.76,1.207-2.146,1.207
			c-1.207,0-2.146-0.909-2.146-2.95c0-3.084,2.012-4.559,3.979-4.559c0.581,0,0.954,0.09,1.192,0.179l0.536-3.368l1.505-0.149
			L146.051,55.8z M143.19,54.713c0.894,0,1.461-0.611,1.684-0.879l0.626-3.904c-0.239-0.119-0.551-0.223-0.998-0.223
			c-1.356,0-2.474,1.058-2.474,3.337C142.027,54.146,142.445,54.713,143.19,54.713z"/>
		<path fill="#441944" d="M150.359,52.597h-0.671c-0.015,0.149-0.015,0.313-0.015,0.462c0,1.207,0.462,1.669,1.43,1.669
			c0.909,0,1.461-0.462,1.669-0.655l0.357,1.073c-0.238,0.223-0.879,0.834-2.294,0.834c-1.64,0-2.653-0.894-2.653-2.936
			c0-2.995,1.803-4.619,3.681-4.619c1.117,0,1.818,0.611,1.818,1.684C153.682,51.733,152.46,52.597,150.359,52.597z M149.838,51.554
			h0.343c1.61,0,2.116-0.432,2.116-1.237c0-0.477-0.268-0.73-0.685-0.73C150.851,49.587,150.151,50.317,149.838,51.554z"/>
		<path fill="#441944" d="M157.225,55.666c-0.134,0.089-0.506,0.268-1.073,0.268c-0.879,0-1.445-0.372-1.445-1.445
			c0-0.283,0.075-0.775,0.194-1.549l1.207-7.659l1.505-0.149l-1.237,7.808c-0.119,0.745-0.164,1.117-0.164,1.296
			c0,0.402,0.149,0.537,0.447,0.537c0.253,0,0.447-0.075,0.522-0.105L157.225,55.666z"/>
		<path fill="#441944" d="M161.005,55.666c-0.134,0.089-0.506,0.268-1.073,0.268c-0.879,0-1.445-0.372-1.445-1.445
			c0-0.283,0.075-0.775,0.194-1.549l1.207-7.659l1.505-0.149l-1.237,7.808c-0.119,0.745-0.164,1.117-0.164,1.296
			c0,0.402,0.149,0.537,0.447,0.537c0.253,0,0.447-0.075,0.522-0.105L161.005,55.666z"/>
		<path fill="#441944" d="M167.87,48.603c0.015,0.134,0.045,0.432,0.045,0.805c0,2.697-1.549,4.471-3.204,6.393h-1.118l-1.356-7.197
			h1.505l0.85,5.573h0.03c1.058-1.4,1.832-2.682,1.832-4.723c0-0.343-0.03-0.641-0.06-0.85H167.87z"/>
		<path fill="#441944" d="M175.205,51.36c0,2.965-1.773,4.619-3.86,4.619c-1.549,0-2.578-0.969-2.578-2.936
			c0-2.965,1.773-4.619,3.86-4.619C174.176,48.424,175.205,49.393,175.205,51.36z M170.288,52.865c0,1.207,0.417,1.848,1.282,1.848
			c1.088,0,2.115-1.118,2.115-3.174c0-1.207-0.417-1.848-1.281-1.848C171.331,49.691,170.288,50.793,170.288,52.865z"/>
		<path fill="#441944" d="M180.863,49.84c-0.075-0.03-0.268-0.104-0.596-0.104c-0.879,0-1.356,0.432-1.743,0.998l-0.805,5.067
			h-1.491l1.133-7.197h1.386l-0.193,1.133h0.03c0.283-0.581,0.864-1.266,1.922-1.266c0.313,0,0.492,0.044,0.581,0.074L180.863,49.84
			z"/>
		<path fill="#441944" d="M187.58,51.986l-0.611,3.815h-1.49l0.611-3.815c0.089-0.462,0.119-0.864,0.119-1.177
			c0-0.745-0.268-1.118-0.954-1.118c-0.789,0-1.4,0.537-1.713,0.82l-0.834,5.29h-1.491l1.669-10.52l1.52-0.149l-0.701,4.351h0.03
			c0.358-0.372,1.088-1.058,2.206-1.058c1.147,0,1.788,0.715,1.788,2.086C187.729,50.943,187.669,51.42,187.58,51.986z"/>
		<path fill="#441944" d="M194.501,55.8h-1.371l0.164-0.983h-0.03c-0.209,0.298-0.805,1.162-2.102,1.162
			c-1.177,0-2.116-0.834-2.116-2.966c0-2.935,1.922-4.589,3.815-4.589c0.969,0,1.401,0.388,1.61,0.567l0.402-0.388h0.775
			L194.501,55.8z M191.685,54.713c0.909,0,1.431-0.626,1.639-0.864l0.626-3.874c-0.149-0.105-0.447-0.313-1.029-0.313
			c-1.281,0-2.369,1.058-2.369,3.412C190.552,54.221,190.984,54.713,191.685,54.713z"/>
		<path fill="#441944" d="M198.988,49.453h0.03c0.298-0.328,0.938-1.029,2.131-1.029c1.311,0,2.027,0.879,2.027,2.622
			c0,3.278-1.773,4.903-4.217,4.903c-1.311,0-2.012-0.447-2.369-0.73l1.564-9.939l1.52-0.119L198.988,49.453z M198.198,54.474
			c0.09,0.09,0.387,0.268,0.849,0.268c1.505,0,2.608-1.148,2.608-3.472c0-1.029-0.357-1.58-1.192-1.58
			c-0.775,0-1.386,0.551-1.64,0.835L198.198,54.474z"/>
		<path fill="#441944" d="M206.546,52.597h-0.671c-0.015,0.149-0.015,0.313-0.015,0.462c0,1.207,0.462,1.669,1.43,1.669
			c0.909,0,1.461-0.462,1.669-0.655l0.357,1.073c-0.238,0.223-0.879,0.834-2.294,0.834c-1.64,0-2.653-0.894-2.653-2.936
			c0-2.995,1.803-4.619,3.681-4.619c1.117,0,1.818,0.611,1.818,1.684C209.868,51.733,208.646,52.597,206.546,52.597z
			 M206.024,51.554h0.343c1.61,0,2.116-0.432,2.116-1.237c0-0.477-0.268-0.73-0.685-0.73
			C207.037,49.587,206.337,50.317,206.024,51.554z"/>
		<path fill="#441944" d="M217.066,51.986l-0.611,3.815h-1.49l0.611-3.815c0.089-0.506,0.134-0.879,0.134-1.162
			c0-0.789-0.283-1.133-0.924-1.133c-0.79,0-1.431,0.507-1.758,0.805l-0.834,5.304h-1.491l1.147-7.197h1.371l-0.164,0.969h0.03
			c0.313-0.358,1.058-1.148,2.354-1.148c1.133,0,1.788,0.671,1.788,2.072C217.23,50.883,217.186,51.345,217.066,51.986z"/>
		<path fill="#441944" d="M131.257,74.907h-2.679l-3.339-7.105h-0.039l-1.126,7.105h-3.3l2.116-13.395h2.698l3.359,7.046h0.058
			l1.126-7.046h3.242L131.257,74.907z"/>
		<path fill="#441944" d="M141.435,63.899h-1.495l-1.339,8.561h1.572l-0.388,2.446h-6.465l0.388-2.446h1.573l1.359-8.561h-1.495
			l0.369-2.387h6.29L141.435,63.899z"/>
		<path fill="#441944" d="M151.945,64.657c-0.311-0.233-0.99-0.679-2.232-0.679c-2.368,0-4.349,1.786-4.349,5.397
			c0,1.942,0.834,3.009,2.678,3.009c1.378,0,2.349-0.563,2.737-0.893l0.66,2.33c-0.408,0.388-1.573,1.319-4.174,1.319
			c-3.048,0-5.261-1.941-5.28-5.727c-0.02-5.746,4.096-8.134,7.493-8.134c1.981,0,2.99,0.583,3.417,0.893L151.945,64.657z"/>
		<path fill="#441944" d="M163.434,74.907h-3.319l0.874-5.435h-4.096l-0.855,5.435h-3.319l2.116-13.395h3.319l-0.834,5.319h4.076
			l0.835-5.319h3.319L163.434,74.907z"/>
		<path fill="#441944" d="M177.09,64.152h-3.514l-1.708,10.755h-3.32l1.709-10.755h-3.631l0.447-2.64h10.619L177.09,64.152z"/>
		<path fill="#441944" d="M181.726,70.073h-5.398l0.369-2.33h5.397L181.726,70.073z"/>
		<path fill="#441944" d="M190.467,63.899h-1.495l-1.339,8.561h1.572l-0.388,2.446h-6.465l0.388-2.446h1.573l1.359-8.561h-1.495
			l0.369-2.387h6.29L190.467,63.899z"/>
		<path fill="#441944" d="M201.358,74.907h-2.679l-3.339-7.105h-0.039l-1.126,7.105h-3.3l2.116-13.395h2.698l3.358,7.046h0.058
			l1.126-7.046h3.242L201.358,74.907z"/>
		<path fill="#441944" d="M209.862,74.907h-2.621l-2.485-13.395h3.378l1.068,8.794h0.039l3.922-8.794h3.436L209.862,74.907z"/>
		<path fill="#441944" d="M225.189,64.152h-4.407l-0.407,2.699h4.116l-0.408,2.601h-4.116l-0.446,2.756h5.125l-0.621,2.699h-8.25
			l2.116-13.395h7.92L225.189,64.152z"/>
		<path fill="#441944" d="M234.104,64.831c-0.466-0.349-1.204-0.874-2.369-0.874c-1.048,0-1.418,0.466-1.418,1.01
			c0,0.563,0.292,0.951,0.874,1.398l1.301,0.951c1.397,1.048,2.077,2.019,2.077,3.631c0,2.058-1.417,4.193-4.795,4.193
			c-2.135,0-3.339-0.815-4.038-1.397l1.126-2.641c0.505,0.485,1.398,1.301,2.834,1.301c1.107,0,1.554-0.505,1.554-1.145
			c0-0.543-0.311-0.913-0.893-1.398l-1.243-1.009c-1.398-1.146-2.058-2.077-2.058-3.727c0-2.136,1.689-3.844,4.621-3.844
			c1.824,0,2.814,0.583,3.455,0.99L234.104,64.831z"/>
		<path fill="#441944" d="M246.453,64.152h-3.514l-1.708,10.755h-3.32l1.709-10.755h-3.631l0.447-2.64h10.619L246.453,64.152z"/>
		<path fill="#441944" d="M254.21,63.899h-1.495l-1.339,8.561h1.572l-0.388,2.446h-6.465l0.388-2.446h1.573l1.359-8.561h-1.495
			l0.369-2.387h6.29L254.21,63.899z"/>
		<path fill="#441944" d="M260.748,74.907h-2.621l-2.485-13.395h3.378l1.067,8.794h0.039l3.921-8.794h3.436L260.748,74.907z"/>
	</g>
	<g>
		<g>
			<path fill="#FFFFFF" d="M68.514,101.295c-18.032,0-32.65-14.613-32.65-32.639c0-18.026,14.618-32.639,32.65-32.639
				s32.65,14.613,32.65,32.639C101.164,86.682,86.546,101.295,68.514,101.295L68.514,101.295z M85.944,38.621
				c-5.367-3.112-11.33-4.703-17.373-4.703c-2.994,0-6.007,0.39-8.978,1.179c-8.967,2.382-16.469,8.112-21.125,16.135
				c-4.656,8.023-5.908,17.378-3.525,26.341c2.383,8.964,8.115,16.464,16.14,21.118c8.026,4.654,17.383,5.907,26.351,3.525
				c8.966-2.382,16.468-8.112,21.125-16.135C108.17,69.52,102.511,48.229,85.944,38.621L85.944,38.621z"/>
			<polyline fill="#FFFFFF" points="60.451,70.397 60.452,70.314 60.52,70.348 60.451,70.397 			"/>
			<path fill="#9B5DA2" d="M37.397,58.758L60.605,70.33l0.56-33.472C49.901,39.45,40.863,47.858,37.397,58.758"/>
			<path fill="#C8A1CB" d="M80.962,38.48c-3.837-1.584-8.039-2.462-12.448-2.462c-2.528,0-4.986,0.297-7.349,0.841l-0.56,33.472
				l14.236-10.288L80.962,38.48"/>
			<path fill="#9B5DA2" d="M80.962,38.48l-6.121,21.562L92.915,46.98C89.651,43.31,85.573,40.383,80.962,38.48L80.962,38.48z"/>
			<path fill="#C8A1CB" d="M70.516,75.272l24.615,12.274c3.794-5.332,6.032-11.848,6.032-18.89c0-8.321-3.12-15.912-8.248-21.676
				L74.841,60.042L70.516,75.272L70.516,75.272z"/>
			<path fill="#9B5DA2" d="M63.25,100.867c1.714,0.278,3.471,0.428,5.264,0.428c10.988,0,20.7-5.431,26.618-13.749L70.516,75.272
				L63.25,100.867L63.25,100.867z"/>
			<path fill="#C8A1CB" d="M60.105,100.197c1.029,0.273,2.079,0.497,3.145,0.67l7.266-25.595l-9.912-4.943L60.105,100.197
				L60.105,100.197z"/>
			<path fill="#9B5DA2" d="M40.27,85.024c4.29,7.382,11.387,12.928,19.835,15.173l0.5-29.868L40.27,85.024L40.27,85.024z"/>
			<path fill="#441944" d="M37.397,58.758c-0.993,3.123-1.533,6.447-1.533,9.899c0,5.968,1.61,11.555,4.407,16.368L60.605,70.33
				L37.397,58.758L37.397,58.758z"/>
			<g>
				<polyline fill="#FFFFFF" points="60.605,70.33 70.516,75.272 74.841,60.042 60.605,70.33 				"/>
				<path fill="#441944" d="M68.571,33.918c-2.994,0-6.007,0.39-8.978,1.179c-8.967,2.382-16.469,8.112-21.125,16.135
					c-4.656,8.023-5.908,17.378-3.525,26.341c2.383,8.964,8.115,16.464,16.14,21.118c8.026,4.654,17.383,5.907,26.351,3.525
					c8.966-2.382,16.468-8.112,21.125-16.135c9.611-16.561,3.952-37.852-12.615-47.46C80.577,35.509,74.614,33.918,68.571,33.918
					L68.571,33.918z M68.455,104.643c-6.261,0-12.438-1.648-17.998-4.873c-8.313-4.821-14.251-12.591-16.72-21.877
					c-2.468-9.286-1.171-18.977,3.652-27.288c4.823-8.311,12.595-14.247,21.883-16.714c9.29-2.467,18.983-1.171,27.297,3.651
					c17.162,9.953,23.024,32.008,13.068,49.165c-4.823,8.31-12.595,14.247-21.884,16.714
					C74.677,104.238,71.555,104.643,68.455,104.643L68.455,104.643z"/>
			</g>
		</g>
	</g>
</g>
<g id="Schutzzone">
	<rect fill="none" width="300" height="138"/>
</g>
</svg>
